<svg width="130" height="130" fill="none" xmlns="http://www.w3.org/2000/svg"><path d="M0 35.04v35.038H14.853l3.81 7.617 3.808 7.618h14.472L47.861 96.23l10.918 10.917h25.01l2.412-3.63 2.412-3.606-4.672-11.68-4.672-11.68-10.486-.126-10.486-.127-.762-3.758-.736-3.732H36.943l-2.488-4.977c-1.371-2.717-2.412-5.053-2.361-5.154.076-.102 2.59-1.828 5.586-3.834 3.427-2.26 5.484-3.784 5.459-4.037 0-.229-2.26-4.875-5.002-10.309l-5.002-9.902-4.596-.076-4.596-.051 1.65-8.278 1.651-8.277-6.957-6.957L13.33 0H0v35.04Z" fill="#F1F0F0"/><path d="m38.172 12.369.609 2.872a1 1 0 0 0 1.186.77l2.871-.609 2.872-.609a1 1 0 0 0 .77-1.185l-.608-2.872-.61-2.872a1 1 0 0 0-1.185-.77l-2.872.608-2.871.61a1 1 0 0 0-.771 1.185l.609 2.872ZM62.08 18.764l-7.871 5.28-2.742 5.536-2.768 5.535 8.15 8.15L65 51.417l8.15-8.15 8.15-8.15-5.433-10.817c-2.97-5.967-5.51-10.842-5.662-10.817-.127 0-3.783 2.387-8.125 5.282ZM84.188 18.111l-.79 2.827a1 1 0 0 0 .694 1.233l2.827.79 2.828.79a1 1 0 0 0 1.232-.694l.79-2.828.79-2.827a1 1 0 0 0-.694-1.232l-2.827-.79-2.828-.79a1 1 0 0 0-1.232.694l-.79 2.827ZM91.66 49.639a3.936 3.936 0 1 0 7.871 0 3.936 3.936 0 0 0-7.87 0ZM77.137 64.822c-3.174 2.133-5.79 3.936-5.79 4.037 0 .127 2.895.204 6.425.204h6.398l1.498 3.808 1.498 3.809H130v-6.272l-7.109-4.722-7.11-4.749-16.428.026H82.9l-5.763 3.86Z" fill="#fff"/><path d="M0 88.215v18.571h48.286l-7.224-9.047-7.224-9.048H17.869l-3.801-9.524-3.803-9.524H0v18.572Z" fill="#F1F0F0"/><path d="M90.467 84.856c.177.457 1.701 4.214 3.351 8.353l2.996 7.516-1.523 2.259c-.813 1.245-1.752 2.692-2.082 3.2l-.584.964h29.758V84.043H90.137l.33.813Z" fill="#fff"/><path d="M0 122.256V130h130v-15.488H0v7.744ZM9.75 67.786 62.679 78.93v27.857H18.107l-8.357-39Z" fill="#F1F0F0"/><path fill="#F1F0F0" d="m25.071 56.39 18.473-6.247 6.543 19.353-18.472 6.246z"/></svg>