<svg width="14" height="14" fill="none" xmlns="http://www.w3.org/2000/svg"><path d="M7 1.353c1.84 0 2.056.008 2.784.04.672.03 1.036.143 1.28.239.322.125.552.273.792.514.241.24.392.47.514.793.094.243.208.607.238 1.28.033.727.041.943.041 2.783 0 1.84-.008 2.056-.04 2.784-.03.672-.143 1.036-.239 1.28a2.137 2.137 0 0 1-.514.792c-.24.24-.47.391-.793.514-.243.093-.607.208-1.28.238-.727.033-.943.041-2.783.041-1.84 0-2.056-.008-2.783-.04-.673-.03-1.037-.143-1.28-.239a2.138 2.138 0 0 1-.793-.514c-.24-.24-.391-.47-.514-.793-.093-.243-.208-.607-.238-1.28-.033-.727-.041-.943-.041-2.783 0-1.84.008-2.056.041-2.784.03-.672.142-1.036.238-1.28.126-.322.273-.552.514-.792.24-.24.47-.391.793-.514.243-.093.607-.208 1.28-.238.727-.036.943-.041 2.783-.041ZM7 .11c-1.87 0-2.105.009-2.84.041-.734.033-1.234.15-1.672.32a3.357 3.357 0 0 0-1.219.796 3.417 3.417 0 0 0-.796 1.22c-.17.437-.287.937-.32 1.673-.032.733-.04.968-.04 2.838S.12 9.105.152 9.84c.033.733.15 1.233.32 1.674.175.454.413.836.796 1.22.383.382.768.617 1.22.795.437.17.937.287 1.673.32.735.033.968.04 2.84.04 1.874 0 2.106-.007 2.842-.04.733-.033 1.233-.15 1.673-.32a3.357 3.357 0 0 0 1.22-.796c.383-.383.618-.768.796-1.22.17-.437.287-.937.32-1.673.032-.735.04-.968.04-2.84 0-1.874-.008-2.106-.04-2.842-.033-.733-.15-1.233-.32-1.673a3.358 3.358 0 0 0-.796-1.22 3.416 3.416 0 0 0-1.22-.795C11.08.3 10.58.182 9.844.15 9.106.12 8.87.11 7 .11Z" fill="#25689E"/><path d="M7 3.46a3.539 3.539 0 1 0 .001 7.079 3.539 3.539 0 0 0 0-7.078Zm0 5.836a2.297 2.297 0 1 1 0-4.593 2.297 2.297 0 0 1 0 4.593ZM10.68 4.149a.826.826 0 1 0 0-1.652.826.826 0 0 0 0 1.652Z" fill="#25689E"/></svg>
