<svg version="1.1" id="OBJECTS" xmlns="http://www.w3.org/2000/svg" x="0" y="0" viewBox="0 0 108.3 131.91" style="enable-background:new 0 0 108.3 131.91" xml:space="preserve"><style>.st0{fill:#fff}</style><path class="st0" d="m77.6 102.95-.62 5.06c19.62 2.41 26.22 7.01 26.22 8.74 0 3.42-17.31 10.07-49.05 10.07S5.1 120.17 5.1 116.75c0-1.73 6.59-6.33 26.19-8.74l-.62-5.06C19.21 104.36 0 108.03 0 116.75c0 10.42 28.07 15.16 54.15 15.16s54.15-4.74 54.15-15.16c0-8.72-19.23-12.39-30.7-13.8z"/><path class="st0" d="M56.23 118.76C74.54 89.54 93.8 60.74 93.8 39.64 93.8 17.75 76.05 0 54.15 0 32.26 0 14.51 17.75 14.51 39.64c0 21.06 20 51.21 37.56 79.13.96 1.54 3.2 1.54 4.16-.01zM35.2 39.65c0-10.46 8.48-18.95 18.95-18.95 10.46 0 18.95 8.48 18.95 18.95 0 10.46-8.48 18.95-18.95 18.95-10.46 0-18.95-8.49-18.95-18.95z"/></svg>