<?xml version="1.0" encoding="utf-8"?>
<!-- Svg Vector Icons : http://www.onlinewebfonts.com/icon -->
<!DOCTYPE svg PUBLIC "-//W3C//DTD SVG 1.1//EN" "http://www.w3.org/Graphics/SVG/1.1/DTD/svg11.dtd">
<svg version="1.1" xmlns="http://www.w3.org/2000/svg" xmlns:xlink="http://www.w3.org/1999/xlink" x="0px" y="0px" viewBox="0 0 1000 1000" enable-background="new 0 0 1000 1000" xml:space="preserve">
<metadata> Svg Vector Icons : http://www.onlinewebfonts.com/icon </metadata>
<g><path d="M911.9,418.3H581.7V88.1C581.7,45,545.2,10,500,10c-45.2,0-81.7,35-81.7,78.1v330.2H88.1C45,418.3,10,454.8,10,500c0,45.2,35,81.7,78.1,81.7h330.2v330.2c0,43.1,36.5,78.1,81.7,78.1c45.2,0,81.7-35,81.7-78.1V581.7h330.2c43.1,0,78.1-36.5,78.1-81.7C990,454.8,955,418.3,911.9,418.3z"/></g>
</svg>