<svg width="32" height="13" viewBox="0 0 32 13" fill="none" xmlns="http://www.w3.org/2000/svg">
<path d="M8 2.33664C9.06087 2.33664 10.0783 2.75807 10.8284 3.50821C11.5786 4.25836 12 5.27577 12 6.33664C12 7.39751 11.5786 8.41492 10.8284 9.16507C10.0783 9.91521 9.06087 10.3366 8 10.3366C6.93913 10.3366 5.92172 9.91521 5.17157 9.16507C4.42143 8.41492 4 7.39751 4 6.33664C4 5.27577 4.42143 4.25836 5.17157 3.50821C5.92172 2.75807 6.93913 2.33664 8 2.33664ZM13.25 3.43064C12.6478 2.34115 11.7217 1.46592 10.6 0.926225C9.47822 0.386535 8.21637 0.209108 6.98929 0.41853C5.76221 0.627952 4.63064 1.21385 3.75138 2.09505C2.87213 2.97624 2.28872 4.1091 2.082 5.33664H1C0.734784 5.33664 0.48043 5.442 0.292893 5.62953C0.105357 5.81707 0 6.07142 0 6.33664C0 6.60186 0.105357 6.85621 0.292893 7.04375C0.48043 7.23128 0.734784 7.33664 1 7.33664H2.082C2.33019 8.82249 3.12822 10.1606 4.31757 11.0852C5.50691 12.0097 7.00053 12.4531 8.50169 12.3271C10.0028 12.2012 11.4017 11.5151 12.4203 10.4053C13.439 9.29548 14.0029 7.84308 14 6.33664C14 5.80621 14.2107 5.2975 14.5858 4.92243C14.9609 4.54735 15.4696 4.33664 16 4.33664C16.5304 4.33664 17.0391 4.54735 17.4142 4.92243C17.7893 5.2975 18 5.80621 18 6.33664C17.9971 7.84308 18.561 9.29548 19.5797 10.4053C20.5983 11.5151 21.9972 12.2012 23.4983 12.3271C24.9995 12.4531 26.4931 12.0097 27.6824 11.0852C28.8718 10.1606 29.6698 8.82249 29.918 7.33664H31C31.2652 7.33664 31.5196 7.23128 31.7071 7.04375C31.8946 6.85621 32 6.60186 32 6.33664C32 6.07142 31.8946 5.81707 31.7071 5.62953C31.5196 5.442 31.2652 5.33664 31 5.33664H29.918C29.7113 4.1091 29.1279 2.97624 28.2486 2.09505C27.3694 1.21385 26.2378 0.627952 25.0107 0.41853C23.7836 0.209108 22.5218 0.386535 21.4 0.926225C20.2783 1.46592 19.3522 2.34115 18.75 3.43064C18.0077 2.72656 17.0231 2.33487 16 2.33664C14.936 2.33664 13.968 2.75264 13.25 3.43064ZM28 6.33664C28 7.39751 27.5786 8.41492 26.8284 9.16507C26.0783 9.91521 25.0609 10.3366 24 10.3366C22.9391 10.3366 21.9217 9.91521 21.1716 9.16507C20.4214 8.41492 20 7.39751 20 6.33664C20 5.27577 20.4214 4.25836 21.1716 3.50821C21.9217 2.75807 22.9391 2.33664 24 2.33664C25.0609 2.33664 26.0783 2.75807 26.8284 3.50821C27.5786 4.25836 28 5.27577 28 6.33664Z" fill="white"/>
</svg>
