<svg width="20" height="20" viewBox="0 0 20 20" fill="none" xmlns="http://www.w3.org/2000/svg">
<path d="M16.0245 12.7171L13.9079 12.4755C13.3995 12.4171 12.8995 12.5921 12.5412 12.9505L11.0079 14.4838C8.64955 13.2838 6.71621 11.3588 5.51621 8.99212L7.05788 7.45046C7.41621 7.09212 7.59121 6.59212 7.53288 6.08379L7.29121 3.98379C7.19121 3.14212 6.48288 2.50879 5.63288 2.50879H4.19121C3.24955 2.50879 2.46621 3.29212 2.52455 4.23379C2.96621 11.3505 8.65788 17.0338 15.7662 17.4755C16.7079 17.5338 17.4912 16.7505 17.4912 15.8088V14.3671C17.4995 13.5255 16.8662 12.8171 16.0245 12.7171V12.7171Z" fill="white"/>
</svg>
